<?xml version="1.0" encoding="UTF-8" standalone="no"?>
<svg xmlns="http://www.w3.org/2000/svg" viewBox="0.00in 0.00in 5.78in 23.45in" width="5.78in" height="23.45in">
<defs>
    <style type="text/css">
        
        text {
            font-family: Optima, Rachana, Sawasdee, sans-serif;
        }
    </style>
</defs>
<g transform="matrix(1.000000 0.000000 0.000000 1.000000 136.800000 12.000000)">
  <rect x="-1.425in" y="-0.125in" width="5.785in" height="23.450in" fill="#FFFFFF"/>
  <rect x="0in" y="0in" width="3in" height="0.600in" fill="#CDE3ED" stroke="#2A6EBB" stroke-width="0.028in"/>
  <rect x="0in" y="0.600in" width="3in" height="1in" fill="#CDE3ED" stroke="#2A6EBB" stroke-width="0.028in"/>
  <path fill="#FFFFFF" stroke="none" d="M 0 153.60 L 0 197.60 C 8 205.60 16 205.60 24 197.60 C 32 189.60 256 205.60 264 197.60 C 272 189.60 280 189.60 288 197.60 L 288 153.60 M 0 249.60 L 0 205.60 C 8 213.60 16 213.60 24 205.60 C 32 197.60 256 213.60 264 205.60 C 272 197.60 280 197.60 288 205.60 L 288 249.60"/>
  <rect x="0in" y="2.600in" width="3in" height="0.600in" fill="#CDE3ED" stroke="#2A6EBB" stroke-width="0.028in"/>
  <path fill="#FFFFFF" stroke="none" d="M 0 307.20 L 0 351.20 C 8 359.20 16 359.20 24 351.20 C 32 343.20 256 359.20 264 351.20 C 272 343.20 280 343.20 288 351.20 L 288 307.20 M 0 403.20 L 0 359.20 C 8 367.20 16 367.20 24 359.20 C 32 351.20 256 367.20 264 359.20 C 272 351.20 280 351.20 288 359.20 L 288 403.20"/>
  <rect x="0in" y="4.200in" width="3in" height="0.600in" fill="#CDE3ED" stroke="#2A6EBB" stroke-width="0.028in"/>
  <path fill="#FFFFFF" stroke="none" d="M 0 460.80 L 0 504.80 C 8 512.80 16 512.80 24 504.80 C 32 496.80 256 512.80 264 504.80 C 272 496.80 280 496.80 288 504.80 L 288 460.80 M 0 556.80 L 0 512.80 C 8 520.80 16 520.80 24 512.80 C 32 504.80 256 520.80 264 512.80 C 272 504.80 280 504.80 288 512.80 L 288 556.80"/>
  <rect x="0in" y="5.800in" width="3in" height="1in" fill="#CDE3ED" stroke="#2A6EBB" stroke-width="0.028in"/>
  <path fill="#FFFFFF" stroke="none" d="M 0 652.80 L 0 696.80 C 8 704.80 16 704.80 24 696.80 C 32 688.80 256 704.80 264 696.80 C 272 688.80 280 688.80 288 696.80 L 288 652.80 M 0 748.80 L 0 704.80 C 8 712.80 16 712.80 24 704.80 C 32 696.80 256 712.80 264 704.80 C 272 696.80 280 696.80 288 704.80 L 288 748.80"/>
  <rect x="0in" y="7.800in" width="3in" height="0.600in" fill="#CDE3ED" stroke="#2A6EBB" stroke-width="0.028in"/>
  <path fill="#FFFFFF" stroke="none" d="M 0 806.40 L 0 850.40 C 8 858.40 16 858.40 24 850.40 C 32 842.40 256 858.40 264 850.40 C 272 842.40 280 842.40 288 850.40 L 288 806.40 M 0 902.40 L 0 858.40 C 8 866.40 16 866.40 24 858.40 C 32 850.40 256 866.40 264 858.40 C 272 850.40 280 850.40 288 858.40 L 288 902.40"/>
  <rect x="0in" y="9.400in" width="3in" height="0.600in" fill="#CDE3ED" stroke="#2A6EBB" stroke-width="0.028in"/>
  <path fill="#FFFFFF" stroke="none" d="M 0 960 L 0 1004 C 8 1012.00 16 1012.00 24 1004 C 32 996 256 1012.00 264 1004 C 272 996 280 996 288 1004 L 288 960 M 0 1056 L 0 1012 C 8 1020 16 1020 24 1012 C 32 1004.00 256 1020 264 1012 C 272 1004.00 280 1004.00 288 1012 L 288 1056"/>
  <rect x="0in" y="11in" width="3in" height="0.600in" fill="#CDE3ED" stroke="#2A6EBB" stroke-width="0.028in"/>
  <path fill="#FFFFFF" stroke="none" d="M 0 1113.60 L 0 1157.60 C 8 1165.60 16 1165.60 24 1157.60 C 32 1149.60 256 1165.60 264 1157.60 C 272 1149.60 280 1149.60 288 1157.60 L 288 1113.60 M 0 1209.60 L 0 1165.60 C 8 1173.60 16 1173.60 24 1165.60 C 32 1157.60 256 1173.60 264 1165.60 C 272 1157.60 280 1157.60 288 1165.60 L 288 1209.60"/>
  <rect x="0in" y="12.600in" width="3in" height="0.600in" fill="#CDE3ED" stroke="#2A6EBB" stroke-width="0.028in"/>
  <rect x="0in" y="13.200in" width="3in" height="0.600in" fill="#CDE3ED" stroke="#2A6EBB" stroke-width="0.028in"/>
  <rect x="0in" y="13.800in" width="3in" height="0.600in" fill="#CDE3ED" stroke="#2A6EBB" stroke-width="0.028in"/>
  <rect x="0in" y="14.400in" width="3in" height="0.600in" fill="#CDE3ED" stroke="#2A6EBB" stroke-width="0.028in"/>
  <rect x="0in" y="15.000in" width="3in" height="0.600in" fill="#CDE3ED" stroke="#2A6EBB" stroke-width="0.028in"/>
  <path fill="#FFFFFF" stroke="none" d="M 0 1497.60 L 0 1541.60 C 8 1549.60 16 1549.60 24 1541.60 C 32 1533.60 256 1549.60 264 1541.60 C 272 1533.60 280 1533.60 288 1541.60 L 288 1497.60 M 0 1593.60 L 0 1549.60 C 8 1557.60 16 1557.60 24 1549.60 C 32 1541.60 256 1557.60 264 1549.60 C 272 1541.60 280 1541.60 288 1549.60 L 288 1593.60"/>
  <rect x="0in" y="16.600in" width="3in" height="0.600in" fill="#CDE3ED" stroke="#2A6EBB" stroke-width="0.028in"/>
  <rect x="0in" y="17.200in" width="3in" height="0.600in" fill="#CDE3ED" stroke="#2A6EBB" stroke-width="0.028in"/>
  <rect x="0in" y="17.800in" width="3in" height="0.600in" fill="#CDE3ED" stroke="#2A6EBB" stroke-width="0.028in"/>
  <rect x="0in" y="18.400in" width="3in" height="0.600in" fill="#CDE3ED" stroke="#2A6EBB" stroke-width="0.028in"/>
  <rect x="0in" y="19.000in" width="3in" height="0.600in" fill="#CDE3ED" stroke="#2A6EBB" stroke-width="0.028in"/>
  <rect x="0in" y="19.600in" width="3in" height="0.600in" fill="#CDE3ED" stroke="#2A6EBB" stroke-width="0.028in"/>
  <rect x="0in" y="20.200in" width="3in" height="0.600in" fill="#CDE3ED" stroke="#2A6EBB" stroke-width="0.028in"/>
  <rect x="0in" y="20.800in" width="3in" height="0.600in" fill="#CDE3ED" stroke="#2A6EBB" stroke-width="0.028in"/>
  <rect x="0in" y="21.400in" width="3in" height="0.600in" fill="#CDE3ED" stroke="#2A6EBB" stroke-width="0.028in"/>
  <rect x="0in" y="22.000in" width="3in" height="0.600in" fill="#CDE3ED" stroke="#2A6EBB" stroke-width="0.028in"/>
  <rect x="0in" y="22.600in" width="3in" height="0.600in" fill="#CDE3ED" stroke="#2A6EBB" stroke-width="0.028in"/>
  <g>
    <text x="1.500in" y="0.300in" fill="#000000" style="text-anchor: middle; dominant-baseline: middle;">Runtime Link Test Status</text>
    <text x="2.950in" y="0.300in" fill="#000000" style="text-anchor: end; dominant-baseline: middle;">4 B </text>
    <text x="3.110in" y="0.550in" fill="#000000">0x1001108</text>
    <text x="1.500in" y="1.100in" fill="#000000" style="text-anchor: middle; dominant-baseline: middle;">Runtime Link Test Control</text>
    <text x="2.950in" y="1.100in" fill="#000000" style="text-anchor: end; dominant-baseline: middle;">8 B </text>
    <text x="3.110in" y="1.550in" fill="#000000">0x1001100</text>
    <path fill="none" stroke="#2A6EBB" stroke-width="0.028in" stroke-linecap="square" d="M 0 153.60 L 288 153.60 M 0 249.60 L 288 249.60"/>
    <path fill="none" stroke="#2A6EBB" stroke-width="0.028in" d="M 0 153.60 L 0 197.60 M -24 197.60 C -16 189.60 -8 189.60 0 197.60 C 8 205.60 16 205.60 24 197.60 M 0 249.60 L 0 205.60 M -24 205.60 C -16 197.60 -8 197.60 0 205.60 C 8 213.60 16 213.60 24 205.60 M 288 153.60 L 288 197.60 M 264 197.60 C 272 189.60 280 189.60 288 197.60 C 296 205.60 304 205.60 312 197.60 M 288 249.60 L 288 205.60 M 264 205.60 C 272 197.60 280 197.60 288 205.60 C 296 213.60 304 213.60 312 205.60"/>
    <text x="1.500in" y="2.900in" fill="#000000" style="text-anchor: middle; dominant-baseline: middle;">Error Log 1</text>
    <text x="2.950in" y="2.900in" fill="#000000" style="text-anchor: end; dominant-baseline: middle;">4 B </text>
    <text x="3.110in" y="3.150in" fill="#000000">0x1001090</text>
    <path fill="none" stroke="#2A6EBB" stroke-width="0.028in" stroke-linecap="square" d="M 0 307.20 L 288 307.20 M 0 403.20 L 288 403.20"/>
    <path fill="none" stroke="#2A6EBB" stroke-width="0.028in" d="M 0 307.20 L 0 351.20 M -24 351.20 C -16 343.20 -8 343.20 0 351.20 C 8 359.20 16 359.20 24 351.20 M 0 403.20 L 0 359.20 M -24 359.20 C -16 351.20 -8 351.20 0 359.20 C 8 367.20 16 367.20 24 359.20 M 288 307.20 L 288 351.20 M 264 351.20 C 272 343.20 280 343.20 288 351.20 C 296 359.20 304 359.20 312 351.20 M 288 403.20 L 288 359.20 M 264 359.20 C 272 351.20 280 351.20 288 359.20 C 296 367.20 304 367.20 312 359.20"/>
    <text x="1.500in" y="4.500in" fill="#000000" style="text-anchor: middle; dominant-baseline: middle;">Error Log 0</text>
    <text x="2.950in" y="4.500in" fill="#000000" style="text-anchor: end; dominant-baseline: middle;">4 B </text>
    <text x="3.110in" y="4.750in" fill="#000000">0x1001080</text>
    <path fill="none" stroke="#2A6EBB" stroke-width="0.028in" stroke-linecap="square" d="M 0 460.80 L 288 460.80 M 0 556.80 L 288 556.80"/>
    <path fill="none" stroke="#2A6EBB" stroke-width="0.028in" d="M 0 460.80 L 0 504.80 M -24 504.80 C -16 496.80 -8 496.80 0 504.80 C 8 512.80 16 512.80 24 504.80 M 0 556.80 L 0 512.80 M -24 512.80 C -16 504.80 -8 504.80 0 512.80 C 8 520.80 16 520.80 24 512.80 M 288 460.80 L 288 504.80 M 264 504.80 C 272 496.80 280 496.80 288 504.80 C 296 512.80 304 512.80 312 504.80 M 288 556.80 L 288 512.80 M 264 512.80 C 272 504.80 280 504.80 288 512.80 C 296 520.80 304 520.80 312 512.80"/>
    <text x="1.500in" y="6.300in" fill="#000000" style="text-anchor: middle; dominant-baseline: middle;">Current Lane Map Module 0</text>
    <text x="2.950in" y="6.300in" fill="#000000" style="text-anchor: end; dominant-baseline: middle;">8 B </text>
    <text x="3.110in" y="6.750in" fill="#000000">0x1001060</text>
    <path fill="none" stroke="#2A6EBB" stroke-width="0.028in" stroke-linecap="square" d="M 0 652.80 L 288 652.80 M 0 748.80 L 288 748.80"/>
    <path fill="none" stroke="#2A6EBB" stroke-width="0.028in" d="M 0 652.80 L 0 696.80 M -24 696.80 C -16 688.80 -8 688.80 0 696.80 C 8 704.80 16 704.80 24 696.80 M 0 748.80 L 0 704.80 M -24 704.80 C -16 696.80 -8 696.80 0 704.80 C 8 712.80 16 712.80 24 704.80 M 288 652.80 L 288 696.80 M 264 696.80 C 272 688.80 280 688.80 288 696.80 C 296 704.80 304 704.80 312 696.80 M 288 748.80 L 288 704.80 M 264 704.80 C 272 696.80 280 696.80 288 704.80 C 296 712.80 304 712.80 312 704.80"/>
    <text x="1.500in" y="8.100in" fill="#000000" style="text-anchor: middle; dominant-baseline: middle;">Training Setup 4</text>
    <text x="2.950in" y="8.100in" fill="#000000" style="text-anchor: end; dominant-baseline: middle;">4 B </text>
    <text x="3.110in" y="8.350in" fill="#000000">0x1001050</text>
    <path fill="none" stroke="#2A6EBB" stroke-width="0.028in" stroke-linecap="square" d="M 0 806.40 L 288 806.40 M 0 902.40 L 288 902.40"/>
    <path fill="none" stroke="#2A6EBB" stroke-width="0.028in" d="M 0 806.40 L 0 850.40 M -24 850.40 C -16 842.40 -8 842.40 0 850.40 C 8 858.40 16 858.40 24 850.40 M 0 902.40 L 0 858.40 M -24 858.40 C -16 850.40 -8 850.40 0 858.40 C 8 866.40 16 866.40 24 858.40 M 288 806.40 L 288 850.40 M 264 850.40 C 272 842.40 280 842.40 288 850.40 C 296 858.40 304 858.40 312 850.40 M 288 902.40 L 288 858.40 M 264 858.40 C 272 850.40 280 850.40 288 858.40 C 296 866.40 304 866.40 312 858.40"/>
    <text x="1.500in" y="9.700in" fill="#000000" style="text-anchor: middle; dominant-baseline: middle;">Training Setup 3</text>
    <text x="2.950in" y="9.700in" fill="#000000" style="text-anchor: end; dominant-baseline: middle;">4 B </text>
    <text x="3.110in" y="9.950in" fill="#000000">0x1001030</text>
    <path fill="none" stroke="#2A6EBB" stroke-width="0.028in" stroke-linecap="square" d="M 0 960 L 288 960 M 0 1056 L 288 1056"/>
    <path fill="none" stroke="#2A6EBB" stroke-width="0.028in" d="M 0 960 L 0 1004 M -24 1004 C -16 996 -8 996 0 1004 C 8 1012.00 16 1012.00 24 1004 M 0 1056 L 0 1012 M -24 1012 C -16 1004.00 -8 1004.00 0 1012 C 8 1020 16 1020 24 1012 M 288 960 L 288 1004 M 264 1004 C 272 996 280 996 288 1004 C 296 1012.00 304 1012.00 312 1004 M 288 1056 L 288 1012 M 264 1012 C 272 1004.00 280 1004.00 288 1012 C 296 1020 304 1020 312 1012"/>
    <text x="1.500in" y="11.300in" fill="#000000" style="text-anchor: middle; dominant-baseline: middle;">Training Setup 2</text>
    <text x="2.950in" y="11.300in" fill="#000000" style="text-anchor: end; dominant-baseline: middle;">4 B </text>
    <text x="3.110in" y="11.550in" fill="#000000">0x1001020</text>
    <path fill="none" stroke="#2A6EBB" stroke-width="0.028in" stroke-linecap="square" d="M 0 1113.60 L 288 1113.60 M 0 1209.60 L 288 1209.60"/>
    <path fill="none" stroke="#2A6EBB" stroke-width="0.028in" d="M 0 1113.60 L 0 1157.60 M -24 1157.60 C -16 1149.60 -8 1149.60 0 1157.60 C 8 1165.60 16 1165.60 24 1157.60 M 0 1209.60 L 0 1165.60 M -24 1165.60 C -16 1157.60 -8 1157.60 0 1165.60 C 8 1173.60 16 1173.60 24 1165.60 M 288 1113.60 L 288 1157.60 M 264 1157.60 C 272 1149.60 280 1149.60 288 1157.60 C 296 1165.60 304 1165.60 312 1157.60 M 288 1209.60 L 288 1165.60 M 264 1165.60 C 272 1157.60 280 1157.60 288 1165.60 C 296 1173.60 304 1173.60 312 1165.60"/>
    <text x="1.500in" y="12.900in" fill="#000000" style="text-anchor: middle; dominant-baseline: middle;">Training Setup 1</text>
    <text x="2.950in" y="12.900in" fill="#000000" style="text-anchor: end; dominant-baseline: middle;">4 B </text>
    <text x="3.110in" y="13.150in" fill="#000000">0x1001010</text>
    <text x="1.500in" y="13.500in" fill="#000000" style="text-anchor: middle; dominant-baseline: middle;">PHY Initialization and Debug</text>
    <text x="2.950in" y="13.500in" fill="#000000" style="text-anchor: end; dominant-baseline: middle;">4 B </text>
    <text x="3.110in" y="13.750in" fill="#000000">0x100100C</text>
    <text x="1.500in" y="14.100in" fill="#000000" style="text-anchor: middle; dominant-baseline: middle;">PHY Status</text>
    <text x="2.950in" y="14.100in" fill="#000000" style="text-anchor: end; dominant-baseline: middle;">4 B </text>
    <text x="3.110in" y="14.350in" fill="#000000">0x1001008</text>
    <text x="1.500in" y="14.700in" fill="#000000" style="text-anchor: middle; dominant-baseline: middle;">PHY Control</text>
    <text x="2.950in" y="14.700in" fill="#000000" style="text-anchor: end; dominant-baseline: middle;">4 B </text>
    <text x="3.110in" y="14.950in" fill="#000000">0x1001004</text>
    <text x="-0.050in" y="15.133in" fill="#000000" style="text-anchor: end; dominant-baseline: middle;">MMIO</text>
    <text x="-0.050in" y="15.300in" fill="#000000" style="text-anchor: end; dominant-baseline: middle;">Space</text>
    <text x="-0.050in" y="15.467in" fill="#000000" style="text-anchor: end; dominant-baseline: middle;">(Bit 24=1)</text>
    <text x="1.500in" y="15.300in" fill="#000000" style="text-anchor: middle; dominant-baseline: middle;">PHY Capability</text>
    <text x="2.950in" y="15.300in" fill="#000000" style="text-anchor: end; dominant-baseline: middle;">4 B </text>
    <text x="3.110in" y="15.550in" fill="#000000">0x1001000</text>
    <path fill="none" stroke="#2A6EBB" stroke-width="0.028in" stroke-linecap="square" d="M 0 1497.60 L 288 1497.60 M 0 1593.60 L 288 1593.60"/>
    <path fill="none" stroke="#2A6EBB" stroke-width="0.028in" d="M 0 1497.60 L 0 1541.60 M -24 1541.60 C -16 1533.60 -8 1533.60 0 1541.60 C 8 1549.60 16 1549.60 24 1541.60 M 0 1593.60 L 0 1549.60 M -24 1549.60 C -16 1541.60 -8 1541.60 0 1549.60 C 8 1557.60 16 1557.60 24 1549.60 M 288 1497.60 L 288 1541.60 M 264 1541.60 C 272 1533.60 280 1533.60 288 1541.60 C 296 1549.60 304 1549.60 312 1541.60 M 288 1593.60 L 288 1549.60 M 264 1549.60 C 272 1541.60 280 1541.60 288 1549.60 C 296 1557.60 304 1557.60 312 1549.60"/>
    <text x="1.500in" y="16.900in" fill="#000000" style="text-anchor: middle; dominant-baseline: middle;">Register Locator 0 High</text>
    <text x="2.950in" y="16.900in" fill="#000000" style="text-anchor: end; dominant-baseline: middle;">4 B </text>
    <text x="3.110in" y="17.150in" fill="#000000">0x0000020</text>
    <text x="1.500in" y="17.500in" fill="#000000" style="text-anchor: middle; dominant-baseline: middle;">Register Locator 0 Low</text>
    <text x="2.950in" y="17.500in" fill="#000000" style="text-anchor: end; dominant-baseline: middle;">4 B </text>
    <text x="3.110in" y="17.750in" fill="#000000">0x000001C</text>
    <text x="1.500in" y="18.100in" fill="#000000" style="text-anchor: middle; dominant-baseline: middle;">Error Notif Ctrl</text>
    <text x="2.950in" y="18.100in" fill="#000000" style="text-anchor: end; dominant-baseline: middle;">2 B </text>
    <text x="3.110in" y="18.350in" fill="#000000">0x000001A</text>
    <text x="1.500in" y="18.700in" fill="#000000" style="text-anchor: middle; dominant-baseline: middle;">Link Event Notif Ctrl</text>
    <text x="2.950in" y="18.700in" fill="#000000" style="text-anchor: end; dominant-baseline: middle;">2 B </text>
    <text x="3.110in" y="18.950in" fill="#000000">0x0000018</text>
    <text x="1.500in" y="19.300in" fill="#000000" style="text-anchor: middle; dominant-baseline: middle;">UCIe Link Status</text>
    <text x="2.950in" y="19.300in" fill="#000000" style="text-anchor: end; dominant-baseline: middle;">4 B </text>
    <text x="3.110in" y="19.550in" fill="#000000">0x0000014</text>
    <text x="1.500in" y="19.900in" fill="#000000" style="text-anchor: middle; dominant-baseline: middle;">UCIe Link Control</text>
    <text x="2.950in" y="19.900in" fill="#000000" style="text-anchor: end; dominant-baseline: middle;">4 B </text>
    <text x="3.110in" y="20.150in" fill="#000000">0x0000010</text>
    <text x="1.500in" y="20.500in" fill="#000000" style="text-anchor: middle; dominant-baseline: middle;">UCIe Link Capability</text>
    <text x="2.950in" y="20.500in" fill="#000000" style="text-anchor: end; dominant-baseline: middle;">4 B </text>
    <text x="3.110in" y="20.750in" fill="#000000">0x000000C</text>
    <text x="1.500in" y="21.100in" fill="#000000" style="text-anchor: middle; dominant-baseline: middle;">Capability Descriptor</text>
    <text x="2.950in" y="21.100in" fill="#000000" style="text-anchor: end; dominant-baseline: middle;">2 B </text>
    <text x="3.110in" y="21.350in" fill="#000000">0x000000A</text>
    <text x="1.500in" y="21.700in" fill="#000000" style="text-anchor: middle; dominant-baseline: middle;">DVSEC Header 2</text>
    <text x="2.950in" y="21.700in" fill="#000000" style="text-anchor: end; dominant-baseline: middle;">2 B </text>
    <text x="3.110in" y="21.950in" fill="#000000">0x0000008</text>
    <text x="1.500in" y="22.300in" fill="#000000" style="text-anchor: middle; dominant-baseline: middle;">DVSEC Header 1</text>
    <text x="2.950in" y="22.300in" fill="#000000" style="text-anchor: end; dominant-baseline: middle;">4 B </text>
    <text x="3.110in" y="22.550in" fill="#000000">0x0000004</text>
    <text x="-0.050in" y="22.733in" fill="#000000" style="text-anchor: end; dominant-baseline: middle;">Config</text>
    <text x="-0.050in" y="22.900in" fill="#000000" style="text-anchor: end; dominant-baseline: middle;">Space</text>
    <text x="-0.050in" y="23.067in" fill="#000000" style="text-anchor: end; dominant-baseline: middle;">(Bit 24=0)</text>
    <text x="1.500in" y="22.900in" fill="#000000" style="text-anchor: middle; dominant-baseline: middle;">PCIe Ext Cap Header</text>
    <text x="2.950in" y="22.900in" fill="#000000" style="text-anchor: end; dominant-baseline: middle;">4 B </text>
    <text x="3.110in" y="23.150in" fill="#000000">0x0000000</text>
  </g>
</g>

</svg>
